<?xml version="1.0" encoding="UTF-8" standalone="no"?><svg xmlns="http://www.w3.org/2000/svg" xmlns:xlink="http://www.w3.org/1999/xlink" contentScriptType="application/ecmascript" contentStyleType="text/css" height="323px" preserveAspectRatio="none" style="width:480px;height:323px;background:#FFFFFF;" version="1.1" viewBox="0 0 480 323" width="480px" zoomAndPan="magnify"><defs><filter height="300%" id="f1nfzqq383qzqq" width="300%" x="-1" y="-1"><feGaussianBlur result="blurOut" stdDeviation="2.0"/><feColorMatrix in="blurOut" result="blurOut2" type="matrix" values="0 0 0 0 0 0 0 0 0 0 0 0 0 0 0 0 0 0 .4 0"/><feOffset dx="4.0" dy="4.0" in="blurOut2" result="blurOut3"/><feBlend in="SourceGraphic" in2="blurOut3" mode="normal"/></filter></defs><g><!--MD5=[cb892ec8eded607875cbb01196163100]
class LeiFeng--><rect codeLine="1" fill="#FEFECE" filter="url(#f1nfzqq383qzqq)" height="60.8047" id="LeiFeng" style="stroke:#A80036;stroke-width:1.5;" width="151" x="64.5" y="7"/><ellipse cx="112.25" cy="23" fill="#B4A7E5" rx="11" ry="11" style="stroke:#A80036;stroke-width:1.0;"/><path d="M113.2031,19.7813 L114.9219,19.7813 C115.3125,19.7813 115.5,19.75 115.625,19.6719 C115.8906,19.5156 116.0313,19.2344 116.0313,18.9375 C116.0313,18.6719 115.9219,18.4063 115.6875,18.2344 C115.5156,18.125 115.375,18.0938 114.9219,18.0938 L109.7813,18.0938 C109.3438,18.0938 109.2188,18.1094 109.0625,18.2031 C108.8125,18.3594 108.6563,18.6563 108.6563,18.9375 C108.6563,19.2188 108.7969,19.4688 109.0156,19.6406 C109.1719,19.75 109.3594,19.7813 109.7813,19.7813 L111.5,19.7813 L111.5,26.2969 L109.7813,26.2969 C109.3438,26.2969 109.2188,26.3125 109.0625,26.4219 C108.8125,26.5781 108.6563,26.8594 108.6563,27.1563 C108.6563,27.4063 108.7969,27.6719 109.0156,27.8281 C109.1719,27.9531 109.375,28 109.7813,28 L114.9219,28 C115.6719,28 116.0313,27.7188 116.0313,27.1563 C116.0313,26.875 115.9219,26.625 115.6875,26.4531 C115.5156,26.3281 115.375,26.2969 114.9219,26.2969 L113.2031,26.2969 L113.2031,19.7813 Z " fill="#000000"/><text fill="#000000" font-family="sans-serif" font-size="12" font-style="italic" lengthAdjust="spacing" textLength="47" x="132.75" y="27.1543">LeiFeng</text><line style="stroke:#A80036;stroke-width:1.5;" x1="65.5" x2="214.5" y1="39" y2="39"/><line style="stroke:#A80036;stroke-width:1.5;" x1="65.5" x2="214.5" y1="47" y2="47"/><text fill="#000000" font-family="sans-serif" font-size="11" lengthAdjust="spacing" textLength="139" x="70.5" y="61.2104">virtual void Sweep() = 0</text><!--MD5=[0c104e2ac747727ee89f646d74b863b1]
class CollegeStudent--><rect codeLine="5" fill="#FEFECE" filter="url(#f1nfzqq383qzqq)" height="60.8047" id="CollegeStudent" style="stroke:#A80036;stroke-width:1.5;" width="124" x="7" y="128"/><ellipse cx="22" cy="144" fill="#ADD1B2" rx="11" ry="11" style="stroke:#A80036;stroke-width:1.0;"/><path d="M24.3438,139.6719 C23.4063,139.2344 22.8125,139.0938 21.9375,139.0938 C19.3125,139.0938 17.3125,141.1719 17.3125,143.8906 L17.3125,145.0156 C17.3125,147.5938 19.4219,149.4844 22.3125,149.4844 C23.5313,149.4844 24.6875,149.1875 25.4375,148.6406 C26.0156,148.2344 26.3438,147.7813 26.3438,147.3906 C26.3438,146.9375 25.9531,146.5469 25.4844,146.5469 C25.2656,146.5469 25.0625,146.625 24.875,146.8125 C24.4219,147.2969 24.4219,147.2969 24.2344,147.3906 C23.8125,147.6563 23.125,147.7813 22.3594,147.7813 C20.3125,147.7813 19.0156,146.6875 19.0156,144.9844 L19.0156,143.8906 C19.0156,142.1094 20.2656,140.7969 22,140.7969 C22.5781,140.7969 23.1875,140.9531 23.6563,141.2031 C24.1406,141.4844 24.3125,141.7031 24.4063,142.1094 C24.4688,142.5156 24.5,142.6406 24.6406,142.7656 C24.7813,142.9063 25.0156,143.0156 25.2344,143.0156 C25.5,143.0156 25.7656,142.875 25.9375,142.6563 C26.0469,142.5 26.0781,142.3125 26.0781,141.8906 L26.0781,140.4688 C26.0781,140.0313 26.0625,139.9063 25.9688,139.75 C25.8125,139.4844 25.5313,139.3438 25.2344,139.3438 C24.9375,139.3438 24.7344,139.4375 24.5156,139.75 L24.3438,139.6719 Z " fill="#000000"/><text fill="#000000" font-family="sans-serif" font-size="12" lengthAdjust="spacing" textLength="92" x="36" y="148.1543">CollegeStudent</text><line style="stroke:#A80036;stroke-width:1.5;" x1="8" x2="130" y1="160" y2="160"/><line style="stroke:#A80036;stroke-width:1.5;" x1="8" x2="130" y1="168" y2="168"/><text fill="#000000" font-family="sans-serif" font-size="11" lengthAdjust="spacing" textLength="76" x="13" y="182.2104">void Sweep()</text><!--MD5=[d20e61c3df8b8f47d0b4e5ec2b6a1cdb]
class Volunteer--><rect codeLine="9" fill="#FEFECE" filter="url(#f1nfzqq383qzqq)" height="60.8047" id="Volunteer" style="stroke:#A80036;stroke-width:1.5;" width="90" x="166" y="128"/><ellipse cx="181" cy="144" fill="#ADD1B2" rx="11" ry="11" style="stroke:#A80036;stroke-width:1.0;"/><path d="M183.3438,139.6719 C182.4063,139.2344 181.8125,139.0938 180.9375,139.0938 C178.3125,139.0938 176.3125,141.1719 176.3125,143.8906 L176.3125,145.0156 C176.3125,147.5938 178.4219,149.4844 181.3125,149.4844 C182.5313,149.4844 183.6875,149.1875 184.4375,148.6406 C185.0156,148.2344 185.3438,147.7813 185.3438,147.3906 C185.3438,146.9375 184.9531,146.5469 184.4844,146.5469 C184.2656,146.5469 184.0625,146.625 183.875,146.8125 C183.4219,147.2969 183.4219,147.2969 183.2344,147.3906 C182.8125,147.6563 182.125,147.7813 181.3594,147.7813 C179.3125,147.7813 178.0156,146.6875 178.0156,144.9844 L178.0156,143.8906 C178.0156,142.1094 179.2656,140.7969 181,140.7969 C181.5781,140.7969 182.1875,140.9531 182.6563,141.2031 C183.1406,141.4844 183.3125,141.7031 183.4063,142.1094 C183.4688,142.5156 183.5,142.6406 183.6406,142.7656 C183.7813,142.9063 184.0156,143.0156 184.2344,143.0156 C184.5,143.0156 184.7656,142.875 184.9375,142.6563 C185.0469,142.5 185.0781,142.3125 185.0781,141.8906 L185.0781,140.4688 C185.0781,140.0313 185.0625,139.9063 184.9688,139.75 C184.8125,139.4844 184.5313,139.3438 184.2344,139.3438 C183.9375,139.3438 183.7344,139.4375 183.5156,139.75 L183.3438,139.6719 Z " fill="#000000"/><text fill="#000000" font-family="sans-serif" font-size="12" lengthAdjust="spacing" textLength="58" x="195" y="148.1543">Volunteer</text><line style="stroke:#A80036;stroke-width:1.5;" x1="167" x2="255" y1="160" y2="160"/><line style="stroke:#A80036;stroke-width:1.5;" x1="167" x2="255" y1="168" y2="168"/><text fill="#000000" font-family="sans-serif" font-size="11" lengthAdjust="spacing" textLength="76" x="172" y="182.2104">void Sweep()</text><!--MD5=[5e032612551058ba685797ccec27b2c0]
class FactoryLeiFengBase--><rect codeLine="17" fill="#FEFECE" filter="url(#f1nfzqq383qzqq)" height="60.8047" id="FactoryLeiFengBase" style="stroke:#A80036;stroke-width:1.5;" width="175" x="291.5" y="128"/><ellipse cx="316.85" cy="144" fill="#B4A7E5" rx="11" ry="11" style="stroke:#A80036;stroke-width:1.0;"/><path d="M317.8031,140.7813 L319.5219,140.7813 C319.9125,140.7813 320.1,140.75 320.225,140.6719 C320.4906,140.5156 320.6313,140.2344 320.6313,139.9375 C320.6313,139.6719 320.5219,139.4063 320.2875,139.2344 C320.1156,139.125 319.975,139.0938 319.5219,139.0938 L314.3813,139.0938 C313.9438,139.0938 313.8188,139.1094 313.6625,139.2031 C313.4125,139.3594 313.2563,139.6563 313.2563,139.9375 C313.2563,140.2188 313.3969,140.4688 313.6156,140.6406 C313.7719,140.75 313.9594,140.7813 314.3813,140.7813 L316.1,140.7813 L316.1,147.2969 L314.3813,147.2969 C313.9438,147.2969 313.8188,147.3125 313.6625,147.4219 C313.4125,147.5781 313.2563,147.8594 313.2563,148.1563 C313.2563,148.4063 313.3969,148.6719 313.6156,148.8281 C313.7719,148.9531 313.975,149 314.3813,149 L319.5219,149 C320.2719,149 320.6313,148.7188 320.6313,148.1563 C320.6313,147.875 320.5219,147.625 320.2875,147.4531 C320.1156,147.3281 319.975,147.2969 319.5219,147.2969 L317.8031,147.2969 L317.8031,140.7813 Z " fill="#000000"/><text fill="#000000" font-family="sans-serif" font-size="12" font-style="italic" lengthAdjust="spacing" textLength="120" x="333.15" y="148.1543">FactoryLeiFengBase</text><line style="stroke:#A80036;stroke-width:1.5;" x1="292.5" x2="465.5" y1="160" y2="160"/><line style="stroke:#A80036;stroke-width:1.5;" x1="292.5" x2="465.5" y1="168" y2="168"/><text fill="#000000" font-family="sans-serif" font-size="11" lengthAdjust="spacing" textLength="163" x="297.5" y="182.2104">virtual LeiFeng* create() = 0</text><!--MD5=[90ec266d6d8f152d608730729f32b177]
class FactoryLeiFeng--><rect codeLine="21" fill="#FEFECE" filter="url(#f1nfzqq383qzqq)" height="60.8047" id="FactoryLeiFeng" style="stroke:#A80036;stroke-width:1.5;" width="182" x="120" y="249"/><ellipse cx="135" cy="265" fill="#ADD1B2" rx="11" ry="11" style="stroke:#A80036;stroke-width:1.0;"/><path d="M137.3438,260.6719 C136.4063,260.2344 135.8125,260.0938 134.9375,260.0938 C132.3125,260.0938 130.3125,262.1719 130.3125,264.8906 L130.3125,266.0156 C130.3125,268.5938 132.4219,270.4844 135.3125,270.4844 C136.5313,270.4844 137.6875,270.1875 138.4375,269.6406 C139.0156,269.2344 139.3438,268.7813 139.3438,268.3906 C139.3438,267.9375 138.9531,267.5469 138.4844,267.5469 C138.2656,267.5469 138.0625,267.625 137.875,267.8125 C137.4219,268.2969 137.4219,268.2969 137.2344,268.3906 C136.8125,268.6563 136.125,268.7813 135.3594,268.7813 C133.3125,268.7813 132.0156,267.6875 132.0156,265.9844 L132.0156,264.8906 C132.0156,263.1094 133.2656,261.7969 135,261.7969 C135.5781,261.7969 136.1875,261.9531 136.6563,262.2031 C137.1406,262.4844 137.3125,262.7031 137.4063,263.1094 C137.4688,263.5156 137.5,263.6406 137.6406,263.7656 C137.7813,263.9063 138.0156,264.0156 138.2344,264.0156 C138.5,264.0156 138.7656,263.875 138.9375,263.6563 C139.0469,263.5 139.0781,263.3125 139.0781,262.8906 L139.0781,261.4688 C139.0781,261.0313 139.0625,260.9063 138.9688,260.75 C138.8125,260.4844 138.5313,260.3438 138.2344,260.3438 C137.9375,260.3438 137.7344,260.4375 137.5156,260.75 L137.3438,260.6719 Z " fill="#000000"/><text fill="#000000" font-family="sans-serif" font-size="12" lengthAdjust="spacing" textLength="92" x="149" y="269.1543">FactoryLeiFeng</text><rect fill="#FFFFFF" height="15.9688" style="stroke:#000000;stroke-width:1.0;stroke-dasharray:2.0,2.0;" width="56" x="249" y="246"/><text fill="#000000" font-family="sans-serif" font-size="12" font-style="italic" lengthAdjust="spacing" textLength="54" x="250" y="258.1387">template</text><line style="stroke:#A80036;stroke-width:1.5;" x1="121" x2="301" y1="281" y2="281"/><line style="stroke:#A80036;stroke-width:1.5;" x1="121" x2="301" y1="289" y2="289"/><text fill="#000000" font-family="sans-serif" font-size="11" lengthAdjust="spacing" textLength="100" x="126" y="303.2104">LeiFeng* create()</text><!--MD5=[ed6624c6556d5e7b1bd23032162d20b7]
class Client--><rect codeLine="30" fill="#FEFECE" filter="url(#f1nfzqq383qzqq)" height="48" id="Client" style="stroke:#A80036;stroke-width:1.5;" width="65" x="346.5" y="255.5"/><ellipse cx="361.5" cy="271.5" fill="#ADD1B2" rx="11" ry="11" style="stroke:#A80036;stroke-width:1.0;"/><path d="M363.8438,267.1719 C362.9063,266.7344 362.3125,266.5938 361.4375,266.5938 C358.8125,266.5938 356.8125,268.6719 356.8125,271.3906 L356.8125,272.5156 C356.8125,275.0938 358.9219,276.9844 361.8125,276.9844 C363.0313,276.9844 364.1875,276.6875 364.9375,276.1406 C365.5156,275.7344 365.8438,275.2813 365.8438,274.8906 C365.8438,274.4375 365.4531,274.0469 364.9844,274.0469 C364.7656,274.0469 364.5625,274.125 364.375,274.3125 C363.9219,274.7969 363.9219,274.7969 363.7344,274.8906 C363.3125,275.1563 362.625,275.2813 361.8594,275.2813 C359.8125,275.2813 358.5156,274.1875 358.5156,272.4844 L358.5156,271.3906 C358.5156,269.6094 359.7656,268.2969 361.5,268.2969 C362.0781,268.2969 362.6875,268.4531 363.1563,268.7031 C363.6406,268.9844 363.8125,269.2031 363.9063,269.6094 C363.9688,270.0156 364,270.1406 364.1406,270.2656 C364.2813,270.4063 364.5156,270.5156 364.7344,270.5156 C365,270.5156 365.2656,270.375 365.4375,270.1563 C365.5469,270 365.5781,269.8125 365.5781,269.3906 L365.5781,267.9688 C365.5781,267.5313 365.5625,267.4063 365.4688,267.25 C365.3125,266.9844 365.0313,266.8438 364.7344,266.8438 C364.4375,266.8438 364.2344,266.9375 364.0156,267.25 L363.8438,267.1719 Z " fill="#000000"/><text fill="#000000" font-family="sans-serif" font-size="12" lengthAdjust="spacing" textLength="33" x="375.5" y="275.6543">Client</text><line style="stroke:#A80036;stroke-width:1.5;" x1="347.5" x2="410.5" y1="287.5" y2="287.5"/><line style="stroke:#A80036;stroke-width:1.5;" x1="347.5" x2="410.5" y1="295.5" y2="295.5"/><!--MD5=[67358e22658adcd09353cc36f0b2b6f8]
reverse link LeiFeng to CollegeStudent--><path codeLine="13" d="M111.977,85.467 C103.4782,99.713 94.38,114.962 86.7532,127.745 " fill="none" id="LeiFeng-backto-CollegeStudent" style="stroke:#A80036;stroke-width:1.0;stroke-dasharray:7.0,7.0;"/><polygon fill="none" points="106.008,81.81,122.267,68.222,118.031,88.984,106.008,81.81" style="stroke:#A80036;stroke-width:1.0;"/><!--MD5=[fee6e892182bf7d47b241dc705b00378]
reverse link LeiFeng to Volunteer--><path codeLine="14" d="M168.023,85.467 C176.522,99.713 185.62,114.962 193.247,127.745 " fill="none" id="LeiFeng-backto-Volunteer" style="stroke:#A80036;stroke-width:1.0;stroke-dasharray:7.0,7.0;"/><polygon fill="none" points="161.969,88.984,157.733,68.222,173.992,81.81,161.969,88.984" style="stroke:#A80036;stroke-width:1.0;"/><!--MD5=[adc3dc97c8251075f42b31ebb2a0f70a]
reverse link FactoryLeiFengBase to FactoryLeiFeng--><path codeLine="25" d="M320.586,200.877 C298.231,216.7114 273.204,234.4391 252.716,248.9511 " fill="none" id="FactoryLeiFengBase-backto-FactoryLeiFeng" style="stroke:#A80036;stroke-width:1.0;stroke-dasharray:7.0,7.0;"/><polygon fill="none" points="316.673,195.07,337.04,189.222,324.765,206.494,316.673,195.07" style="stroke:#A80036;stroke-width:1.0;"/><!--MD5=[34b577acb343e6d31f7bc66b7816c9e9]
reverse link CollegeStudent to FactoryLeiFeng--><path codeLine="27" d="M108.337,192.466 C129.373,210.0939 155.071,231.6296 175.494,248.7447 " fill="none" id="CollegeStudent-backto-FactoryLeiFeng" style="stroke:#A80036;stroke-width:1.0;stroke-dasharray:7.0,7.0;"/><polygon fill="#A80036" points="104.4663,189.222,108.7959,198.0681,108.2988,192.4332,113.9338,191.9361,104.4663,189.222" style="stroke:#A80036;stroke-width:1.0;"/><!--MD5=[e434f0ffc17506278035a9dd64c26943]
reverse link Volunteer to FactoryLeiFeng--><path codeLine="28" d="M211,194.457 C211,211.6962 211,232.2688 211,248.7447 " fill="none" id="Volunteer-backto-FactoryLeiFeng" style="stroke:#A80036;stroke-width:1.0;stroke-dasharray:7.0,7.0;"/><polygon fill="#A80036" points="211,189.222,207,198.222,211,194.222,215,198.222,211,189.222" style="stroke:#A80036;stroke-width:1.0;"/><!--MD5=[64696f20e6fec353605c44d3e31cf336]
reverse link FactoryLeiFengBase to Client--><path codeLine="34" d="M379,194.391 C379,214.0925 379,238.1639 379,255.4994 " fill="none" id="FactoryLeiFengBase-backto-Client" style="stroke:#A80036;stroke-width:1.0;"/><polygon fill="#A80036" points="379,189.222,375,198.222,379,194.222,383,198.222,379,189.222" style="stroke:#A80036;stroke-width:1.0;"/><!--MD5=[e07c95ac680c66707db3bc19b72d465c]
@startuml
Interface LeiFeng {
    virtual void Sweep() = 0
}

class CollegeStudent {
    void Sweep()
}

class Volunteer {
    void Sweep()
}

LeiFeng <|.. CollegeStudent
LeiFeng <|.. Volunteer


interface FactoryLeiFengBase {
    virtual LeiFeng* create() = 0
}

class FactoryLeiFeng<template> {
    LeiFeng* create()
}

FactoryLeiFengBase <|.. FactoryLeiFeng

CollegeStudent <.. FactoryLeiFeng
Volunteer <.. FactoryLeiFeng

class Client {

}

FactoryLeiFengBase <- - Client
@enduml

PlantUML version 1.2022.2beta1(Unknown compile time)
(GPL source distribution)
Java Runtime: Java(TM) SE Runtime Environment
JVM: Java HotSpot(TM) 64-Bit Server VM
Default Encoding: UTF-8
Language: en
Country: US
--></g></svg>